<?xml version="1.0" standalone="no"?>
<!DOCTYPE svg PUBLIC "-//W3C//DTD SVG 20010904//EN"
 "http://www.w3.org/TR/2001/REC-SVG-20010904/DTD/svg10.dtd">
<svg version="1.0" xmlns="http://www.w3.org/2000/svg"
 width="260.000000pt" height="260.000000pt" viewBox="0 0 260.000000 260.000000"
 preserveAspectRatio="xMidYMid meet">
<metadata>
Created by potrace 1.11, written by Peter Selinger 2001-2013
</metadata>
<g transform="translate(0.000000,260.000000) scale(0.100000,-0.100000)"
fill="#000000" stroke="none">
<path d="M1187 2209 c-9 -5 -22 -7 -27 -4 -6 3 -10 1 -10 -6 0 -8 -4 -8 -15 1
-13 11 -14 10 -8 -5 5 -15 3 -17 -11 -12 -10 4 -27 2 -38 -4 -15 -8 -19 -8
-13 1 9 14 -36 -9 -47 -25 -5 -6 -8 -5 -8 3 0 7 -5 10 -10 7 -6 -4 -7 -12 -3
-18 4 -7 -2 -5 -12 3 -10 8 -16 10 -12 4 3 -6 -4 -16 -18 -22 -21 -10 -23 -9
-18 6 4 13 2 12 -10 -3 -8 -11 -13 -24 -9 -30 3 -5 -3 -3 -13 5 -11 9 -16 10
-11 3 4 -8 1 -13 -8 -13 -9 0 -16 -5 -16 -11 0 -5 5 -7 12 -3 7 4 8 3 4 -4 -5
-9 -13 -9 -28 -1 -11 6 -18 7 -16 2 3 -4 -3 -16 -14 -25 -10 -10 -18 -15 -18
-12 0 3 -7 -2 -16 -10 -8 -9 -20 -14 -25 -11 -5 4 -6 -2 -2 -11 4 -11 3 -15
-5 -10 -6 4 -22 -9 -36 -31 -15 -21 -26 -34 -26 -30 0 5 -7 1 -16 -7 -8 -9
-12 -21 -8 -27 4 -8 3 -9 -4 -5 -7 4 -12 2 -12 -4 0 -6 -5 -8 -12 -4 -8 5 -9
2 -5 -9 4 -11 1 -17 -8 -17 -7 0 -17 -5 -21 -12 -5 -7 -3 -8 7 -3 12 8 12 6 0
-8 -7 -9 -18 -14 -25 -10 -6 4 -5 -1 3 -10 12 -15 11 -17 -2 -17 -9 0 -19 -5
-23 -12 -5 -7 -2 -9 7 -4 8 4 4 -1 -9 -12 -15 -14 -18 -22 -10 -25 10 -4 10
-6 0 -6 -7 -1 -10 -6 -7 -11 3 -5 1 -10 -4 -10 -6 0 -11 -7 -11 -16 0 -9 -5
-12 -13 -8 -9 6 -9 4 1 -8 10 -13 10 -17 -5 -22 -15 -6 -15 -8 -3 -16 13 -8
13 -10 1 -10 -8 0 -11 -3 -8 -7 4 -3 -1 -12 -11 -20 -9 -8 -12 -12 -5 -9 7 4
9 -1 6 -14 -3 -11 -9 -20 -14 -20 -5 0 -5 -7 -2 -17 5 -12 3 -14 -8 -8 -12 7
-12 6 -1 -7 8 -10 9 -17 3 -20 -6 -1 -12 -12 -14 -23 -1 -11 -7 -26 -11 -34
-7 -10 -5 -12 5 -6 11 6 12 5 2 -6 -7 -7 -13 -17 -13 -22 0 -4 6 -5 13 -1 7 5
7 1 -2 -10 -15 -18 -23 -59 -10 -51 4 3 6 -6 5 -20 0 -14 -5 -25 -10 -25 -5 0
-3 -7 4 -15 9 -10 9 -15 1 -15 -6 0 -11 -5 -11 -11 0 -5 4 -8 8 -5 5 3 9 -1 9
-9 0 -8 -4 -12 -9 -9 -4 3 -8 0 -8 -5 0 -6 5 -11 10 -11 6 0 10 -5 10 -11 0
-5 -4 -8 -9 -5 -13 9 -7 -19 8 -38 12 -14 11 -16 -5 -9 -17 6 -17 5 -5 -10 8
-10 11 -20 8 -24 -4 -3 -1 -13 6 -21 10 -13 9 -15 -8 -9 -17 6 -18 5 -4 -5 9
-7 14 -19 11 -26 -2 -7 4 -20 14 -28 18 -15 18 -15 0 -10 -15 5 -17 4 -8 -7 7
-8 8 -18 4 -22 -4 -5 -1 -5 6 -1 8 5 12 -1 12 -19 0 -18 4 -24 13 -19 8 5 8 2
-2 -9 -8 -11 -9 -17 -3 -17 7 0 9 -7 5 -17 -4 -10 -2 -14 4 -10 6 4 13 -2 16
-14 5 -18 3 -18 -11 -7 -16 12 -16 11 -2 -7 9 -11 22 -32 29 -47 8 -15 19 -24
25 -21 6 4 4 -2 -4 -13 -8 -10 -11 -16 -6 -12 13 11 46 -35 35 -49 -7 -7 -6
-14 1 -18 8 -5 5 -11 -7 -21 -14 -11 -15 -13 -3 -14 12 0 12 -2 2 -9 -17 -11
-17 -21 0 -32 10 -7 8 -9 -7 -9 -18 -1 -19 -1 -2 -11 9 -5 17 -17 17 -24 0 -8
7 -15 16 -15 8 0 13 -4 10 -8 -3 -4 9 -13 25 -19 24 -9 30 -9 26 0 -3 7 3 13
13 13 10 0 17 -4 14 -7 -2 -4 0 -10 6 -14 5 -3 10 0 10 9 0 8 6 13 13 12 30
-7 48 -20 43 -32 -3 -8 0 -13 7 -11 7 1 11 -3 10 -10 -2 -7 4 -10 12 -7 8 4
15 1 15 -6 0 -6 5 -8 10 -5 6 3 10 -2 10 -11 0 -10 3 -14 7 -11 3 4 13 -2 21
-14 11 -16 17 -18 28 -8 12 10 16 8 21 -9 3 -13 13 -22 25 -22 10 0 17 -4 14
-9 -3 -5 0 -9 7 -8 41 1 57 -4 57 -20 0 -15 2 -16 10 -3 7 12 10 12 10 1 0 -7
6 -11 15 -7 8 3 15 1 15 -5 0 -5 8 -9 18 -7 9 2 16 -2 15 -9 -2 -12 21 -12 33
0 15 15 26 6 13 -10 -13 -15 -12 -15 8 -5 28 15 36 15 27 -1 -6 -9 -5 -9 7 0
18 15 59 9 71 -9 6 -10 8 -10 8 -1 0 7 7 10 17 6 10 -4 14 -2 9 5 -4 7 1 9 16
6 42 -9 78 -10 90 -3 7 4 19 2 27 -4 12 -10 14 -9 7 8 -6 16 -5 18 5 8 15 -15
33 -17 25 -4 -3 5 1 11 9 15 8 3 17 0 21 -6 4 -7 9 -6 15 3 7 11 9 11 9 1 0
-7 5 -10 10 -7 6 4 7 12 3 18 -4 8 -2 8 9 -1 13 -10 16 -9 21 9 5 19 8 20 21
9 15 -11 20 -7 17 12 0 4 10 3 24 -2 19 -7 23 -6 18 5 -3 10 1 15 14 15 11 0
29 9 40 20 15 14 23 16 26 7 3 -7 6 -1 6 13 1 18 4 21 10 11 6 -9 11 -10 15
-2 4 6 4 11 0 11 -3 0 4 9 17 19 17 13 28 16 36 9 9 -7 11 -4 8 11 -3 15 0 18
12 14 11 -4 14 -2 9 5 -4 7 -1 12 8 12 9 0 16 7 16 16 0 8 5 12 10 9 6 -3 10
1 10 10 0 9 5 13 10 10 6 -3 10 0 10 8 0 8 8 21 18 28 16 13 16 13 2 -6 -14
-18 -14 -19 2 -7 10 8 14 20 11 29 -4 11 -2 14 5 9 11 -6 17 5 13 26 0 5 2 7
7 7 19 -3 25 2 12 11 -13 8 -12 10 3 10 9 0 17 7 17 15 0 8 5 15 11 15 5 0 7
-5 3 -12 -4 -7 -3 -8 4 -4 6 4 9 13 5 21 -3 8 1 15 8 15 7 0 9 3 6 7 -4 3 -1
13 6 21 10 13 9 15 -3 8 -8 -4 -6 0 4 8 11 9 16 16 11 16 -5 0 0 7 11 15 19
15 19 15 -1 9 -17 -5 -16 -3 5 16 14 12 19 19 13 15 -9 -4 -11 -1 -7 9 3 9 11
13 16 10 6 -4 5 2 -1 14 -8 15 -8 23 1 28 7 5 8 3 3 -6 -5 -9 -4 -11 4 -6 6 4
9 11 6 16 -3 5 -1 12 5 15 8 5 7 12 -2 23 -8 9 -8 13 -2 9 7 -4 15 0 18 9 4
10 2 13 -6 8 -7 -5 -8 -3 -3 6 13 20 19 108 18 265 0 160 -4 225 -14 225 -4 0
-10 7 -13 16 -3 8 -2 12 4 9 14 -9 12 9 -2 23 -9 9 -9 12 0 12 7 0 12 4 12 10
0 5 -6 7 -14 4 -7 -3 -16 2 -19 10 -4 9 -1 16 6 16 7 1 1 7 -13 16 l-25 15 25
-6 25 -6 -25 15 c-16 10 -19 16 -10 16 12 0 11 3 -3 11 -14 8 -15 14 -7 24 8
10 6 17 -9 27 -12 8 -18 18 -14 21 3 4 1 7 -6 7 -7 0 -9 5 -6 10 3 6 1 10 -5
10 -6 0 -8 5 -5 10 3 6 -1 10 -10 10 -9 0 -14 4 -10 9 3 5 -2 16 -10 24 -8 9
-15 21 -15 27 0 6 -4 8 -10 5 -5 -3 -10 1 -10 9 0 9 -4 16 -10 16 -5 0 -10 7
-10 15 0 8 -12 18 -27 21 -23 6 -25 8 -9 14 16 5 14 8 -12 19 -30 12 -37 22
-33 44 1 5 -4 7 -11 4 -7 -2 -23 7 -36 20 -12 13 -26 22 -31 18 -5 -3 -19 6
-30 21 -12 15 -25 23 -32 18 -8 -4 -9 -3 -5 4 4 7 1 12 -9 12 -10 0 -13 5 -9
12 4 6 3 8 -3 5 -6 -4 -20 2 -33 13 -12 10 -28 16 -36 13 -8 -3 -14 1 -14 8 0
11 -3 11 -10 -1 -8 -13 -10 -12 -10 4 0 20 0 20 -15 0 -11 -13 -14 -14 -13 -4
2 10 -4 14 -16 12 -10 -2 -15 1 -12 6 3 5 -8 9 -25 10 -19 0 -27 -3 -23 -11 3
-7 -4 -1 -15 12 -12 13 -21 18 -21 12 0 -7 -5 -9 -10 -6 -6 4 -7 11 -4 17 4 7
2 8 -4 4 -6 -4 -8 -14 -5 -24 5 -15 4 -15 -9 1 -11 14 -29 19 -76 20 -34 1
-62 -1 -62 -5 0 -4 -7 -4 -17 -1 -9 4 -14 2 -10 -3 3 -5 -3 -10 -13 -10 -14 0
-16 3 -8 13 12 15 9 16 -15 2z m83 -1823 c0 -3 -4 -8 -10 -11 -5 -3 -10 -1
-10 4 0 6 5 11 10 11 6 0 10 -2 10 -4z"/>
<path d="M1720 2086 c0 -2 8 -10 18 -17 15 -13 16 -12 3 4 -13 16 -21 21 -21
13z"/>
<path d="M730 580 c0 -5 5 -10 11 -10 5 0 7 5 4 10 -3 6 -8 10 -11 10 -2 0 -4
-4 -4 -10z"/>
<path d="M1195 360 c3 -5 8 -10 11 -10 2 0 4 5 4 10 0 6 -5 10 -11 10 -5 0 -7
-4 -4 -10z"/>
</g>
</svg>
